# xmcd
#
# Track frame offsets: 
#        150
#        9107
#        19790
#        28032
#        38732
#        55157
#        67512
#        78922
#        89907
#        100447
#        109522
#        120397
#        132952
#        143035
#        157877
#
# Disc length: 2254 seconds
#
# Revision: 6
# Processed by: cddbd v1.5.2PL0 Copyright (c) Steve Scherf et al.
# Submitted via: ExactAudioCopy v1.1
#
DISCID=ae08cc0f
DTITLE=Hawkshaw Hawkins - Hawk 1953-61 - Disc 3
DYEAR=1991
DGENRE=Country
TTITLE0=Twenty Miles From Shore (stereo)
TTITLE1=Big Ole Heartache (stereo)
TTITLE2=Big Red Benson (stereo)
TTITLE3=Soldiers's Joy (stereo)
TTITLE4=Patanio (The Pride Of The Plains) (stereo)
TTITLE5=Alaska Lil And Texas Bill (stereo)
TTITLE6=Darkness On The Face Of The Earth (stereo)
TTITLE7=Put A Nickel In The Jukebox (stereo)
TTITLE8=I Can't Seem To Say Goodbye (stereo)
TTITLE9=No Love For Me (stereo)
TTITLE10=You Know Me Much Too Well (stereo)
TTITLE11=My Story (stereo)
TTITLE12=The Love I Have For You (stereo)
TTITLE13=Patanio (The Pride Of The Plains) (alt) (stereo)
TTITLE14=You Conscience (stereo)
EXTD=YEAR: 1991
EXTT0=
EXTT1=
EXTT2=
EXTT3=
EXTT4=
EXTT5=
EXTT6=
EXTT7=
EXTT8=
EXTT9=
EXTT10=
EXTT11=
EXTT12=
EXTT13=
EXTT14=
PLAYORDER=
